<?xml version="1.0" encoding="UTF-8"?>
<svg version="1.1" width="409.77867" height="310.69467" viewBox="0 0 409.77867 310.69467" xmlns="http://www.w3.org/2000/svg">
  <defs>
    <clipPath
       clipPathUnits="userSpaceOnUse"
       id="clipPath4">
      <path
         d="M 0,233.021 H 307.334 V 0 H 0 Z"
         transform="translate(-184.0923,-86.423805)"
         id="path4" />
    </clipPath>
<clipPath
       clipPathUnits="userSpaceOnUse"
       id="clipPath6">
      <path
         d="M 0,233.021 H 307.334 V 0 H 0 Z"
         transform="translate(-46.552201,-58.878404)"
         id="path6" />
    </clipPath>
<clipPath
       clipPathUnits="userSpaceOnUse"
       id="clipPath8">
      <path
         d="M 0,233.021 H 307.334 V 0 H 0 Z"
         transform="translate(-60.802702,-61.079099)"
         id="path8" />
    </clipPath>
<clipPath
       clipPathUnits="userSpaceOnUse"
       id="clipPath10">
      <path
         d="M 0,233.021 H 307.334 V 0 H 0 Z"
         transform="translate(-75.635702,-69.267104)"
         id="path10" />
    </clipPath>
<clipPath
       clipPathUnits="userSpaceOnUse"
       id="clipPath12">
      <path
         d="M 0,233.021 H 307.334 V 0 H 0 Z"
         transform="translate(-90.915505,-60.751004)"
         id="path12" />
    </clipPath>
<clipPath
       clipPathUnits="userSpaceOnUse"
       id="clipPath14">
      <path
         d="M 0,233.021 H 307.334 V 0 H 0 Z"
         transform="translate(-106.3813,-59.813504)"
         id="path14" />
    </clipPath>
<clipPath
       clipPathUnits="userSpaceOnUse"
       id="clipPath16">
      <path
         d="M 0,233.021 H 307.334 V 0 H 0 Z"
         transform="translate(-126.1533,-60.025904)"
         id="path16" />
    </clipPath>
<clipPath
       clipPathUnits="userSpaceOnUse"
       id="clipPath18">
      <path
         d="M 0,233.021 H 307.334 V 0 H 0 Z"
         transform="translate(-140.8662,-64.048799)"
         id="path18" />
    </clipPath>
<clipPath
       clipPathUnits="userSpaceOnUse"
       id="clipPath20">
      <path
         d="M 0,233.021 H 307.334 V 0 H 0 Z"
         transform="translate(-155.0713,-63.298402)"
         id="path20" />
    </clipPath>
<clipPath
       clipPathUnits="userSpaceOnUse"
       id="clipPath22">
      <path
         d="M 0,233.021 H 307.334 V 0 H 0 Z"
         transform="translate(-166.32321,-69.267104)"
         id="path22" />
    </clipPath>
<clipPath
       clipPathUnits="userSpaceOnUse"
       id="clipPath24">
      <path
         d="M 0,233.021 H 307.334 V 0 H 0 Z"
         transform="translate(-189.0703,-60.025904)"
         id="path24" />
    </clipPath>
<clipPath
       clipPathUnits="userSpaceOnUse"
       id="clipPath26">
      <path
         d="M 0,233.021 H 307.334 V 0 H 0 Z"
         transform="translate(-202.87401,-59.813504)"
         id="path26" />
    </clipPath>
<clipPath
       clipPathUnits="userSpaceOnUse"
       id="clipPath28">
      <path
         d="M 0,233.021 H 307.334 V 0 H 0 Z"
         transform="translate(-209.58501,-59.836401)"
         id="path28" />
    </clipPath>
<clipPath
       clipPathUnits="userSpaceOnUse"
       id="clipPath30">
      <path
         d="M 0,233.021 H 307.334 V 0 H 0 Z"
         transform="translate(-216.6079,-61.079099)"
         id="path30" />
    </clipPath>
<clipPath
       clipPathUnits="userSpaceOnUse"
       id="clipPath32">
      <path
         d="M 0,233.021 H 307.334 V 0 H 0 Z"
         transform="translate(-230.62161,-62.717302)"
         id="path32" />
    </clipPath>
<clipPath
       clipPathUnits="userSpaceOnUse"
       id="clipPath34">
      <path
         d="M 0,233.021 H 307.334 V 0 H 0 Z"
         transform="translate(-243.67921,-73.034204)"
         id="path34" />
    </clipPath>
<clipPath
       clipPathUnits="userSpaceOnUse"
       id="clipPath36">
      <path
         d="M 0,233.021 H 307.334 V 0 H 0 Z"
         transform="translate(-257.36571,-59.813504)"
         id="path36" />
    </clipPath>
  </defs>
  <g id="layer1">
    <path
       id="path1"
       d="M 0,0 H 18.176 L 54.451,-90.763 H 36.16 Z"
       style="fill:#1d8241;fill-opacity:1;fill-rule:evenodd;stroke:none"
       transform="matrix(1.3333333,0,0,-1.3333333,197.2428,74.446)" />
<path
       id="path2"
       d="m 0,0 h -18.176 l -42.788,-90.763 h 18.179 z"
       style="fill:#3b9c4b;fill-opacity:1;fill-rule:evenodd;stroke:none"
       transform="matrix(1.3333333,0,0,-1.3333333,221.47787,74.446)" />
<path
       id="path3"
       d="M 0,0 H 18.291 C 8.435,14.757 -8.404,24.491 -27.52,24.491 c -2.943,0 -5.828,-0.238 -8.636,-0.678 V 9.624 c 2.803,0.608 5.713,0.936 8.7,0.936 C -16.889,10.56 -7.255,6.561 0,0"
       style="fill:#3b9c4b;fill-opacity:1;fill-rule:evenodd;stroke:none"
       transform="matrix(1.3333333,0,0,-1.3333333,245.4564,195.46293)"
       clip-path="url(#clipPath4)" />
<path
       id="path5"
       d="m 0,0 2.365,1.754 c 0.675,-1.263 1.591,-1.802 2.571,-1.802 1.523,0 2.318,0.819 2.318,3.205 v 11.468 h 3.461 V 2.877 c 0,-3.252 -1.636,-5.92 -5.356,-5.92 C 2.831,-3.043 1.148,-2.012 0,0"
       style="fill:#262220;fill-opacity:1;fill-rule:nonzero;stroke:none"
       transform="matrix(1.3333333,0,0,-1.3333333,62.0696,232.19013)"
       clip-path="url(#clipPath6)" />
<path
       id="path7"
       d="M 0,0 V 8.188 H 3.438 V 0.442 c 0,-2.012 0.563,-2.738 1.824,-2.738 1.079,0 1.78,0.469 2.667,1.638 v 8.846 h 3.44 V -4.916 H 8.563 L 8.305,-3.045 H 8.213 C 7.089,-4.377 5.825,-5.244 4.047,-5.244 1.217,-5.244 0,-3.278 0,0"
       style="fill:#262220;fill-opacity:1;fill-rule:nonzero;stroke:none"
       transform="matrix(1.3333333,0,0,-1.3333333,81.070267,229.25587)"
       clip-path="url(#clipPath8)" />
<path
       id="path9"
       d="m 0,0 h 2.806 l 0.259,-1.731 h 0.07 c 1.146,1.123 2.481,2.057 4.259,2.057 2.832,0 4.048,-1.964 4.048,-5.262 v -8.168 H 8.003 v 7.745 c 0,2.037 -0.562,2.738 -1.849,2.738 -1.078,0 -1.755,-0.515 -2.715,-1.475 v -9.008 H 0 Z"
       style="fill:#262220;fill-opacity:1;fill-rule:nonzero;stroke:none"
       transform="matrix(1.3333333,0,0,-1.3333333,100.8476,218.33853)"
       clip-path="url(#clipPath10)" />
<path
       id="path11"
       d="m 0,0 v 5.802 h -1.85 v 2.549 l 2.036,0.165 0.4,3.534 H 3.438 V 8.516 h 3.23 V 5.802 H 3.438 V 0 c 0,-1.499 0.611,-2.201 1.779,-2.201 0.421,0 0.936,0.141 1.284,0.28 L 7.066,-4.425 C 6.362,-4.657 5.452,-4.916 4.304,-4.916 1.194,-4.916 0,-2.927 0,0"
       style="fill:#262220;fill-opacity:1;fill-rule:nonzero;stroke:none"
       transform="matrix(1.3333333,0,0,-1.3333333,121.22067,229.69333)"
       clip-path="url(#clipPath12)" />
<path
       id="path13"
       d="M 0,0 V 2.645 C -3.205,2.246 -4.284,1.357 -4.284,0.186 c 0,-1.029 0.729,-1.473 1.733,-1.473 0.982,0 1.71,0.467 2.551,1.287 m -7.56,-0.092 c 0,2.805 2.27,4.281 7.56,4.842 -0.07,1.288 -0.633,2.27 -2.246,2.27 -1.216,0 -2.387,-0.54 -3.604,-1.239 l -1.241,2.268 c 1.546,0.96 3.418,1.731 5.476,1.731 3.321,0 5.029,-1.987 5.029,-5.777 V -3.65 H 0.609 L 0.375,-2.245 H 0.28 c -1.146,-0.984 -2.458,-1.734 -3.953,-1.734 -2.341,0 -3.887,1.662 -3.887,3.887"
       style="fill:#262220;fill-opacity:1;fill-rule:nonzero;stroke:none"
       transform="matrix(1.3333333,0,0,-1.3333333,141.84173,230.94333)"
       clip-path="url(#clipPath14)" />
<path
       id="path15"
       d="m 0,0 v 5.754 c -0.796,0.726 -1.64,0.984 -2.458,0.984 -1.474,0 -2.714,-1.404 -2.714,-4.025 0,-2.713 0.983,-4.07 2.714,-4.07 0.912,0 1.687,0.371 2.458,1.357 m -8.707,2.691 c 0,4.255 2.667,6.876 5.501,6.876 1.474,0 2.387,-0.558 3.323,-1.426 L 0,10.201 V 14.81 H 3.415 V -3.862 H 0.628 L 0.373,-2.506 H 0.28 c -0.959,-0.935 -2.272,-1.685 -3.627,-1.685 -3.255,0 -5.36,2.576 -5.36,6.882"
       style="fill:#262220;fill-opacity:1;fill-rule:nonzero;stroke:none"
       transform="matrix(1.3333333,0,0,-1.3333333,168.2044,230.66013)"
       clip-path="url(#clipPath16)" />
<path
       id="path17"
       d="M 0,0 C 0,1.755 -0.792,2.877 -2.479,2.877 -3.858,2.877 -5.075,1.896 -5.333,0 Z m -8.631,-1.332 c 0,4.234 2.994,6.876 6.107,6.876 3.603,0 5.475,-2.642 5.475,-6.246 0,-0.655 -0.072,-1.287 -0.165,-1.591 h -8.073 c 0.28,-2.152 1.684,-3.275 3.63,-3.275 1.074,0 2.011,0.327 2.946,0.91 l 1.17,-2.103 c -1.286,-0.892 -2.948,-1.453 -4.563,-1.453 -3.673,0 -6.527,2.552 -6.527,6.882"
       style="fill:#262220;fill-opacity:1;fill-rule:nonzero;stroke:none"
       transform="matrix(1.3333333,0,0,-1.3333333,187.8216,225.29627)"
       clip-path="url(#clipPath18)" />
<path
       id="path19"
       d="M 0,0 H 4.117 L 3.604,1.898 C 3.065,3.699 2.598,5.686 2.104,7.561 H 1.989 C 1.544,5.664 1.029,3.699 0.515,1.898 Z M 0.07,10.205 H 4.145 L 9.712,-7.135 H 6.083 l -1.216,4.444 h -5.615 l -1.219,-4.444 h -3.508 z"
       style="fill:#262220;fill-opacity:1;fill-rule:nonzero;stroke:none"
       transform="matrix(1.3333333,0,0,-1.3333333,206.76173,226.2968)"
       clip-path="url(#clipPath20)" />
<path
       id="path21"
       d="m 0,0 h 2.809 l 0.259,-1.731 h 0.07 c 1.146,1.123 2.479,2.057 4.258,2.057 2.833,0 4.045,-1.964 4.045,-5.262 v -8.168 H 8.004 v 7.745 c 0,2.037 -0.561,2.738 -1.848,2.738 -1.076,0 -1.755,-0.515 -2.715,-1.475 v -9.008 H 0 Z"
       style="fill:#262220;fill-opacity:1;fill-rule:nonzero;stroke:none"
       transform="matrix(1.3333333,0,0,-1.3333333,221.76427,218.33853)"
       clip-path="url(#clipPath22)" />
<path
       id="path23"
       d="m 0,0 v 5.754 c -0.796,0.726 -1.642,0.984 -2.46,0.984 -1.473,0 -2.712,-1.404 -2.712,-4.025 0,-2.713 0.982,-4.07 2.712,-4.07 0.914,0 1.686,0.371 2.46,1.357 m -8.707,2.691 c 0,4.255 2.668,6.876 5.498,6.876 1.475,0 2.388,-0.558 3.325,-1.426 L 0,10.201 V 14.81 H 3.415 V -3.862 H 0.627 L 0.373,-2.506 H 0.277 c -0.957,-0.935 -2.266,-1.685 -3.626,-1.685 -3.253,0 -5.358,2.576 -5.358,6.882"
       style="fill:#262220;fill-opacity:1;fill-rule:nonzero;stroke:none"
       transform="matrix(1.3333333,0,0,-1.3333333,252.09373,230.66013)"
       clip-path="url(#clipPath24)" />
<path
       id="path25"
       d="M 0,0 V 2.645 C -3.208,2.246 -4.283,1.357 -4.283,0.186 c 0,-1.029 0.723,-1.473 1.73,-1.473 0.984,0 1.709,0.467 2.553,1.287 m -7.559,-0.092 c 0,2.805 2.269,4.281 7.559,4.842 -0.073,1.288 -0.63,2.27 -2.246,2.27 -1.219,0 -2.388,-0.54 -3.604,-1.239 l -1.242,2.268 c 1.545,0.96 3.417,1.731 5.478,1.731 3.322,0 5.028,-1.987 5.028,-5.777 V -3.65 H 0.607 L 0.374,-2.245 H 0.279 c -1.146,-0.984 -2.457,-1.734 -3.954,-1.734 -2.34,0 -3.884,1.662 -3.884,3.887"
       style="fill:#262220;fill-opacity:1;fill-rule:nonzero;stroke:none"
       transform="matrix(1.3333333,0,0,-1.3333333,270.49867,230.94333)"
       clip-path="url(#clipPath26)" />
<path
       id="path27"
       d="M 0,0 V 15 H 3.442 V -0.141 c 0,-0.795 0.353,-1.053 0.678,-1.053 0.143,0 0.235,0 0.468,0.048 L 5.011,-3.698 C 4.611,-3.86 4.051,-4.001 3.232,-4.001 0.845,-4.001 0,-2.434 0,0"
       style="fill:#262220;fill-opacity:1;fill-rule:nonzero;stroke:none"
       transform="matrix(1.3333333,0,0,-1.3333333,279.44667,230.9128)"
       clip-path="url(#clipPath28)" />
<path
       id="path29"
       d="M 0,0 V 8.188 H 3.436 V 0.442 c 0,-2.012 0.565,-2.738 1.828,-2.738 1.076,0 1.777,0.469 2.668,1.638 V 8.188 H 11.37 V -4.916 H 8.565 L 8.307,-3.045 H 8.213 C 7.089,-4.377 5.826,-5.244 4.045,-5.244 1.215,-5.244 0,-3.278 0,0"
       style="fill:#262220;fill-opacity:1;fill-rule:nonzero;stroke:none"
       transform="matrix(1.3333333,0,0,-1.3333333,288.81053,229.25587)"
       clip-path="url(#clipPath30)" />
<path
       id="path31"
       d="m 0,0 c 0,4.351 3.137,6.876 6.691,6.876 1.616,0 2.857,-0.631 3.815,-1.45 L 8.87,3.203 C 8.214,3.765 7.605,4.068 6.882,4.068 4.866,4.068 3.511,2.454 3.511,0 c 0,-2.483 1.381,-4.075 3.253,-4.075 0.935,0 1.823,0.444 2.549,1.054 l 1.382,-2.27 C 9.428,-6.391 7.839,-6.882 6.389,-6.882 2.763,-6.882 0,-4.354 0,0"
       style="fill:#262220;fill-opacity:1;fill-rule:nonzero;stroke:none"
       transform="matrix(1.3333333,0,0,-1.3333333,307.49547,227.0716)"
       clip-path="url(#clipPath32)" />
<path
       id="path33"
       d="M 0,0 3.977,4.748 6.339,2.457 1.707,-1.662 Z m -0.119,-3.767 h 3.44 v -13.104 h -3.44 z"
       style="fill:#262220;fill-opacity:1;fill-rule:nonzero;stroke:none"
       transform="matrix(1.3333333,0,0,-1.3333333,324.9056,213.31573)"
       clip-path="url(#clipPath34)" />
<path
       id="path35"
       d="M 0,0 V 2.645 C -3.205,2.246 -4.283,1.357 -4.283,0.186 c 0,-1.029 0.726,-1.473 1.732,-1.473 0.982,0 1.709,0.467 2.551,1.287 m -7.559,-0.092 c 0,2.805 2.268,4.281 7.559,4.842 -0.069,1.288 -0.632,2.27 -2.246,2.27 -1.218,0 -2.387,-0.54 -3.602,-1.239 L -7.09,8.049 c 1.544,0.96 3.415,1.731 5.476,1.731 3.322,0 5.031,-1.987 5.031,-5.777 V -3.65 H 0.608 L 0.376,-2.245 H 0.283 c -1.149,-0.984 -2.46,-1.734 -3.958,-1.734 -2.336,0 -3.884,1.662 -3.884,3.887"
       style="fill:#262220;fill-opacity:1;fill-rule:nonzero;stroke:none"
       transform="matrix(1.3333333,0,0,-1.3333333,343.15427,230.94333)"
       clip-path="url(#clipPath36)" />
  </g>
</svg>