<?xml version="1.0" encoding="UTF-8" standalone="no"?>
<!-- Created with Inkscape (http://www.inkscape.org/) -->

<svg
   version="1.1"
   id="svg1"
   width="178.37868"
   height="169.48666"
   viewBox="0 0 178.37868 169.48666"
   sodipodi:docname="Simbolo_JuntaAndalucia_CMYK.svg"
   inkscape:version="1.4 (86a8ad7, 2024-10-11)"
   xmlns:inkscape="http://www.inkscape.org/namespaces/inkscape"
   xmlns:sodipodi="http://sodipodi.sourceforge.net/DTD/sodipodi-0.dtd"
   xmlns="http://www.w3.org/2000/svg"
   xmlns:svg="http://www.w3.org/2000/svg">
  <defs
     id="defs1">
    <clipPath
       clipPathUnits="userSpaceOnUse"
       id="clipPath4">
      <path
         d="M 0,127.115 H 133.784 V 0 H 0 Z"
         transform="translate(-97.2208,-18.176203)"
         id="path4" />
    </clipPath>
    <clipPath
       clipPathUnits="userSpaceOnUse"
       id="clipPath8">
      <path
         d="M 0,127.115 H 133.784 V 0 H 0 Z"
         transform="translate(-97.221005,-18.176203)"
         id="path8" />
    </clipPath>
    <clipPath
       clipPathUnits="userSpaceOnUse"
       id="clipPath12">
      <path
         d="M 0,127.115 H 133.784 V 0 H 0 Z"
         transform="translate(-97.2207,-18.176203)"
         id="path12" />
    </clipPath>
    <clipPath
       clipPathUnits="userSpaceOnUse"
       id="clipPath16">
      <path
         d="M 0,127.115 H 133.784 V 0 H 0 Z"
         transform="translate(-97.2211,-18.176203)"
         id="path16" />
    </clipPath>
    <clipPath
       clipPathUnits="userSpaceOnUse"
       id="clipPath21">
      <path
         d="M 0,127.115 H 133.784 V 0 H 0 Z"
         transform="translate(-97.220802,-18.176098)"
         id="path21" />
    </clipPath>
    <clipPath
       clipPathUnits="userSpaceOnUse"
       id="clipPath26">
      <path
         d="M 0,127.115 H 133.784 V 0 H 0 Z"
         transform="translate(-97.220977,-18.176)"
         id="path26" />
    </clipPath>
    <clipPath
       clipPathUnits="userSpaceOnUse"
       id="clipPath31">
      <path
         d="M 0,127.115 H 133.784 V 0 H 0 Z"
         transform="translate(-97.220702,-18.176)"
         id="path31" />
    </clipPath>
    <clipPath
       clipPathUnits="userSpaceOnUse"
       id="clipPath36">
      <path
         d="M 0,128.115 H 134.784 V 0 H 0 Z"
         transform="translate(-97.721127,-18.675998)"
         id="path36" />
    </clipPath>
  </defs>
  <sodipodi:namedview
     id="namedview1"
     pagecolor="#ffffff"
     bordercolor="#000000"
     borderopacity="0.25"
     inkscape:showpageshadow="2"
     inkscape:pageopacity="0.0"
     inkscape:pagecheckerboard="0"
     inkscape:deskcolor="#d1d1d1"
     showgrid="false"
     inkscape:zoom="2.4489931"
     inkscape:cx="22.662375"
     inkscape:cy="81.257885"
     inkscape:window-width="2560"
     inkscape:window-height="1369"
     inkscape:window-x="-8"
     inkscape:window-y="-8"
     inkscape:window-maximized="1"
     inkscape:current-layer="layer-MC0">
    <inkscape:page
       x="0"
       y="0"
       inkscape:label="1"
       id="page1"
       width="178.37868"
       height="169.48666"
       margin="24.235067 24.364 24.234667 24.363867"
       bleed="0" />
    <inkscape:page
       x="198.37867"
       y="0"
       inkscape:label="2"
       id="page4"
       width="178.37867"
       height="169.48667"
       margin="24.23506667 24.364 24.23466667 24.36386667" />
    <inkscape:page
       x="396.75733"
       y="0"
       inkscape:label="3"
       id="page8"
       width="178.37867"
       height="169.48667"
       margin="24.23506667 24.364 24.23466667 24.36386667" />
    <inkscape:page
       x="595.136"
       y="0"
       inkscape:label="4"
       id="page12"
       width="178.37867"
       height="169.48667"
       margin="24.23506667 24.364 24.23466667 24.36386667" />
    <inkscape:page
       x="793.51467"
       y="0"
       inkscape:label="5"
       id="page16"
       width="178.37867"
       height="169.48667" />
    <inkscape:page
       x="991.89333"
       y="0"
       inkscape:label="6"
       id="page21"
       width="178.37867"
       height="169.48667" />
    <inkscape:page
       x="1190.272"
       y="0"
       inkscape:label="7"
       id="page26"
       width="178.37867"
       height="169.48667" />
    <inkscape:page
       x="1388.6507"
       y="0"
       inkscape:label="8"
       id="page31"
       width="179.712"
       height="170.82"
       margin="0.12111413 0.092 0.12133333 0.09248867" />
  </sodipodi:namedview>
  <g
     id="layer-MC0"
     inkscape:groupmode="layer"
     inkscape:label="Capa 1">
    <path
       id="path1"
       d="M 0,0 H 18.176 L 54.451,-90.763 H 36.16 Z"
       style="fill:#1d8241;fill-opacity:1;fill-rule:evenodd;stroke:none"
       transform="matrix(1.3333333,0,0,-1.3333333,81.414267,24.2348)" />
    <path
       id="path2"
       d="m 0,0 h -18.176 l -42.788,-90.763 h 18.179 z"
       style="fill:#3b9c4b;fill-opacity:1;fill-rule:evenodd;stroke:none"
       transform="matrix(1.3333333,0,0,-1.3333333,105.6492,24.2348)" />
    <path
       id="path3"
       d="M 0,0 H 18.291 C 8.435,14.758 -8.404,24.491 -27.52,24.491 c -2.943,0 -5.828,-0.238 -8.636,-0.678 V 9.624 c 2.803,0.608 5.713,0.936 8.7,0.936 C -16.889,10.56 -7.255,6.561 0,0"
       style="fill:#3b9c4b;fill-opacity:1;fill-rule:evenodd;stroke:none"
       transform="matrix(1.3333333,0,0,-1.3333333,129.62773,145.25173)"
       clip-path="url(#clipPath4)" />
    <path
       id="path5"
       d="M 0,0 H 18.177 L 54.451,-90.763 H 36.161 Z"
       style="fill:#1d8241;fill-opacity:1;fill-rule:evenodd;stroke:none"
       transform="matrix(1.3333333,0,0,-1.3333333,279.79253,24.2348)" />
    <path
       id="path6"
       d="m 0,0 h -18.177 l -42.787,-90.763 h 18.178 z"
       style="fill:#1d8241;fill-opacity:1;fill-rule:evenodd;stroke:none"
       transform="matrix(1.3333333,0,0,-1.3333333,304.02813,24.2348)" />
    <path
       id="path7"
       d="M 0,0 H 18.291 C 8.434,14.758 -8.404,24.491 -27.52,24.491 c -2.943,0 -5.828,-0.238 -8.637,-0.678 V 9.624 c 2.804,0.608 5.714,0.936 8.701,0.936 C -16.889,10.56 -7.255,6.561 0,0"
       style="fill:#1d8241;fill-opacity:1;fill-rule:evenodd;stroke:none"
       transform="matrix(1.3333333,0,0,-1.3333333,328.00667,145.25173)"
       clip-path="url(#clipPath8)" />
    <path
       id="path9"
       d="M 0,0 H 18.177 L 54.451,-90.763 H 36.16 Z"
       style="fill:#262220;fill-opacity:1;fill-rule:evenodd;stroke:none"
       transform="matrix(1.3333333,0,0,-1.3333333,478.17147,24.2348)" />
    <path
       id="path10"
       d="m 0,0 h -18.177 l -42.788,-90.763 h 18.179 z"
       style="fill:#464a51;fill-opacity:1;fill-rule:evenodd;stroke:none"
       transform="matrix(1.3333333,0,0,-1.3333333,502.4072,24.2348)" />
    <path
       id="path11"
       d="M 0,0 H 18.291 C 8.435,14.758 -8.404,24.491 -27.52,24.491 c -2.943,0 -5.828,-0.238 -8.636,-0.678 V 9.624 c 2.803,0.608 5.713,0.936 8.701,0.936 C -16.889,10.56 -7.255,6.561 0,0"
       style="fill:#464a51;fill-opacity:1;fill-rule:evenodd;stroke:none"
       transform="matrix(1.3333333,0,0,-1.3333333,526.38493,145.25173)"
       clip-path="url(#clipPath12)" />
    <path
       id="path13"
       d="M 0,0 H 18.176 L 54.45,-90.763 H 36.16 Z"
       style="fill:#262220;fill-opacity:1;fill-rule:evenodd;stroke:none"
       transform="matrix(1.3333333,0,0,-1.3333333,676.55053,24.2348)" />
    <path
       id="path14"
       d="m 0,0 h -18.176 l -42.788,-90.763 h 18.179 z"
       style="fill:#262220;fill-opacity:1;fill-rule:evenodd;stroke:none"
       transform="matrix(1.3333333,0,0,-1.3333333,700.78493,24.2348)" />
    <path
       id="path15"
       d="m 0,0 h 18.29 c -9.855,14.758 -26.694,24.491 -45.81,24.491 -2.943,0 -5.828,-0.238 -8.636,-0.678 V 9.624 c 2.803,0.608 5.713,0.936 8.7,0.936 C -16.889,10.56 -7.255,6.561 0,0"
       style="fill:#262220;fill-opacity:1;fill-rule:evenodd;stroke:none"
       transform="matrix(1.3333333,0,0,-1.3333333,724.76413,145.25173)"
       clip-path="url(#clipPath16)" />
    <path
       id="path17"
       d="M 0,0 H 133.784 V 127.115 H 0 Z"
       style="fill:#dddddc;fill-opacity:1;fill-rule:nonzero;stroke:none"
       transform="matrix(1.3333333,0,0,-1.3333333,793.51467,169.48667)" />
    <path
       id="path18"
       d="M 0,0 H 18.176 L 54.451,-90.763 H 36.16 Z"
       style="fill:#1d8241;fill-opacity:1;fill-rule:evenodd;stroke:none"
       transform="matrix(1.3333333,0,0,-1.3333333,874.92893,24.234933)" />
    <path
       id="path19"
       d="m 0,0 h -18.176 l -42.788,-90.763 h 18.179 z"
       style="fill:#3b9c4b;fill-opacity:1;fill-rule:evenodd;stroke:none"
       transform="matrix(1.3333333,0,0,-1.3333333,899.16387,24.234933)" />
    <path
       id="path20"
       d="M 0,0 H 18.291 C 8.435,14.758 -8.404,24.491 -27.52,24.491 c -2.943,0 -5.828,-0.238 -8.636,-0.678 V 9.624 c 2.803,0.608 5.713,0.936 8.7,0.936 C -16.889,10.56 -7.255,6.561 0,0"
       style="fill:#3b9c4b;fill-opacity:1;fill-rule:evenodd;stroke:none"
       transform="matrix(1.3333333,0,0,-1.3333333,923.1424,145.25187)"
       clip-path="url(#clipPath21)" />
    <path
       id="path22"
       d="M 0,0 H 133.784 V 127.115 H 0 Z"
       style="fill:#1d8241;fill-opacity:1;fill-rule:nonzero;stroke:none"
       transform="matrix(1.3333333,0,0,-1.3333333,991.89333,169.48667)" />
    <path
       id="path23"
       d="M 0,0 H 18.177 L 54.451,-90.763 H 36.161 Z"
       style="fill:#ffffff;fill-opacity:1;fill-rule:evenodd;stroke:none"
       transform="matrix(1.3333333,0,0,-1.3333333,1073.3072,24.235067)" />
    <path
       id="path24"
       d="m 0,0 h -18.177 l -42.787,-90.763 h 18.178 z"
       style="fill:#ffffff;fill-opacity:1;fill-rule:evenodd;stroke:none"
       transform="matrix(1.3333333,0,0,-1.3333333,1097.5428,24.235067)" />
    <path
       id="path25"
       d="M 0,0 H 18.291 C 8.434,14.758 -8.404,24.491 -27.52,24.491 c -2.943,0 -5.828,-0.238 -8.637,-0.678 V 9.624 c 2.804,0.608 5.714,0.937 8.701,0.937 C -16.889,10.561 -7.255,6.562 0,0"
       style="fill:#ffffff;fill-opacity:1;fill-rule:evenodd;stroke:none"
       transform="matrix(1.3333333,0,0,-1.3333333,1121.5213,145.252)"
       clip-path="url(#clipPath26)" />
    <path
       id="path27"
       d="M 0,0 H 133.784 V 127.115 H 0 Z"
       style="fill:#464a51;fill-opacity:1;fill-rule:nonzero;stroke:none"
       transform="matrix(1.3333333,0,0,-1.3333333,1190.272,169.48667)" />
    <path
       id="path28"
       d="M 0,0 H 18.177 L 54.451,-90.763 H 36.16 Z"
       style="fill:#898d8e;fill-opacity:1;fill-rule:evenodd;stroke:none"
       transform="matrix(1.3333333,0,0,-1.3333333,1271.6861,24.235067)" />
    <path
       id="path29"
       d="m 0,0 h -18.177 l -42.788,-90.763 h 18.179 z"
       style="fill:#bdc0be;fill-opacity:1;fill-rule:evenodd;stroke:none"
       transform="matrix(1.3333333,0,0,-1.3333333,1295.9219,24.235067)" />
    <path
       id="path30"
       d="M 0,0 H 18.291 C 8.435,14.758 -8.404,24.491 -27.52,24.491 c -2.943,0 -5.828,-0.238 -8.636,-0.678 V 9.624 c 2.803,0.608 5.713,0.937 8.701,0.937 C -16.889,10.561 -7.255,6.562 0,0"
       style="fill:#bdc0be;fill-opacity:1;fill-rule:evenodd;stroke:none"
       transform="matrix(1.3333333,0,0,-1.3333333,1319.8996,145.252)"
       clip-path="url(#clipPath31)" />
    <path
       id="path32"
       d="M 0.069,0.091 H 134.715 V 128.025 H 0.069 Z"
       style="fill:#262220;fill-opacity:1;fill-rule:nonzero;stroke:none"
       transform="matrix(1.3333333,0,0,-1.3333333,1388.6507,170.82)" />
    <path
       id="path33"
       d="M 0,0 H 18.176 L 54.45,-90.763 H 36.16 Z"
       style="fill:#ffffff;fill-opacity:1;fill-rule:evenodd;stroke:none"
       transform="matrix(1.3333333,0,0,-1.3333333,1470.7319,24.901733)" />
    <path
       id="path34"
       d="m 0,0 h -18.176 l -42.788,-90.763 h 18.179 z"
       style="fill:#ffffff;fill-opacity:1;fill-rule:evenodd;stroke:none"
       transform="matrix(1.3333333,0,0,-1.3333333,1494.9663,24.901733)" />
    <path
       id="path35"
       d="m 0,0 h 18.29 c -9.855,14.758 -26.694,24.491 -45.81,24.491 -2.943,0 -5.828,-0.238 -8.636,-0.678 V 9.624 c 2.803,0.608 5.713,0.937 8.7,0.937 C -16.889,10.561 -7.255,6.562 0,0"
       style="fill:#ffffff;fill-opacity:1;fill-rule:evenodd;stroke:none"
       transform="matrix(1.3333333,0,0,-1.3333333,1518.9455,145.91867)"
       clip-path="url(#clipPath36)" />
  </g>
</svg>
